<svg xmlns="http://www.w3.org/2000/svg" width="1480" height="1040" viewBox="0 0 1480 1040"><rect width="1480" height="1040" fill="#ffffff"/><defs><linearGradient id="g_fm" x1="0" y1="0" x2="0" y2="1"><stop offset="0" stop-color="#eaf2fb"/><stop offset="1" stop-color="#cfe0f3"/></linearGradient><linearGradient id="g_eng" x1="0" y1="0" x2="0" y2="1"><stop offset="0" stop-color="#edf7ed"/><stop offset="1" stop-color="#d6ecd6"/></linearGradient><linearGradient id="g_oh" x1="0" y1="0" x2="0" y2="1"><stop offset="0" stop-color="#f3ecf8"/><stop offset="1" stop-color="#e7d9ef"/></linearGradient><linearGradient id="g_fus" x1="0" y1="0" x2="0" y2="1"><stop offset="0" stop-color="#fef4e3"/><stop offset="1" stop-color="#fdebcf"/></linearGradient><linearGradient id="g_out" x1="0" y1="0" x2="0" y2="1"><stop offset="0" stop-color="#fbe9e9"/><stop offset="1" stop-color="#f6d6d6"/></linearGradient><linearGradient id="g_pan" x1="0" y1="0" x2="0" y2="1"><stop offset="0" stop-color="#ffffff"/><stop offset="1" stop-color="#f4f7fa"/></linearGradient><filter id="sh" x="-20%" y="-20%" width="140%" height="140%"><feDropShadow dx="0" dy="1.6" stdDeviation="2.2" flood-color="#000" flood-opacity="0.16"/></filter><marker id="arr" markerWidth="9" markerHeight="9" refX="7" refY="4.5" orient="auto"><path d="M0,0 L9,4.5 L0,9 z" fill="#3b4654"/></marker><marker id="arrd" markerWidth="9" markerHeight="9" refX="7" refY="4.5" orient="auto"><path d="M0,0 L9,4.5 L0,9 z" fill="#9b6a9e"/></marker></defs><text x="740.0" y="36.0" font-family="Helvetica,Arial,sans-serif" font-size="22" font-weight="700" fill="#1b2733" text-anchor="middle"><tspan x="740.0" dy="0">Hybrid multi-view architecture for neuronal mRNA localization prediction</tspan></text><rect x="24" y="56" width="690" height="300" rx="14" fill="url(#g_pan)" stroke="#9aa7b2" stroke-width="1.8" filter="url(#sh)"/><text x="40" y="80" font-family="Helvetica,Arial,sans-serif" font-size="15" font-weight="700" fill="#9aa7b2">A   Curated atlas &amp; leakage-safe partitioning</text><rect x="44" y="92" width="380" height="60" rx="8" fill="#ffffff" stroke="#9aa7b2" stroke-width="1.2" filter="url(#sh)"/><text x="234.0" y="118.91999999999999" font-family="Helvetica,Arial,sans-serif" font-size="11" font-weight="normal" fill="#243" text-anchor="middle"><tspan x="234.0" dy="0">Curated neuronal mRNA localization atlas</tspan><tspan x="234.0" dy="13.64">sequence · source · species · gene · transcript · label</tspan></text><rect x="44" y="168" width="182" height="70" rx="8" fill="#ffffff" stroke="#9aa7b2" stroke-width="1.2" filter="url(#sh)"/><text x="135.0" y="200.06" font-family="Helvetica,Arial,sans-serif" font-size="10.5" font-weight="normal" fill="#243" text-anchor="middle"><tspan x="135.0" dy="0">17 published sources · mouse / rat / human</tspan><tspan x="135.0" dy="13.02">RNA-seq · Ribo-seq · MPRA · 3'-seq</tspan></text><rect x="238" y="168" width="186" height="70" rx="8" fill="#ffffff" stroke="#9aa7b2" stroke-width="1.2" filter="url(#sh)"/><text x="331.0" y="193.54999999999998" font-family="Helvetica,Arial,sans-serif" font-size="10.5" font-weight="normal" fill="#243" text-anchor="middle"><tspan x="331.0" dy="0">Annotation schema</tspan><tspan x="331.0" dy="13.02">multilabel · soft (continuous) labels</tspan><tspan x="331.0" dy="13.02">+ per-sample source mask</tspan></text><rect x="452" y="96" width="240" height="40" rx="8" fill="url(#g_eng)" stroke="#5c946e" stroke-width="1.3" filter="url(#sh)"/><text x="572.0" y="120.08" font-family="Helvetica,Arial,sans-serif" font-size="12" font-weight="normal" fill="#243" text-anchor="middle"><tspan x="572.0" dy="0">Train  70%   (ortholog groups A, C, E …)</tspan></text><rect x="452" y="146" width="240" height="40" rx="8" fill="url(#g_fus)" stroke="#e0922f" stroke-width="1.3" filter="url(#sh)"/><text x="572.0" y="170.08" font-family="Helvetica,Arial,sans-serif" font-size="12" font-weight="normal" fill="#243" text-anchor="middle"><tspan x="572.0" dy="0">Validation  15%   (groups B, F …)</tspan></text><rect x="452" y="196" width="240" height="40" rx="8" fill="url(#g_out)" stroke="#c0504d" stroke-width="1.3" filter="url(#sh)"/><text x="572.0" y="220.08" font-family="Helvetica,Arial,sans-serif" font-size="12" font-weight="normal" fill="#243" text-anchor="middle"><tspan x="572.0" dy="0">Test  15%   (groups D, G …)</tspan></text><rect x="44" y="256" width="648" height="56" rx="8" fill="#ffffff" stroke="#9aa7b2" stroke-width="1.2" filter="url(#sh)"/><text x="368.0" y="287.91" font-family="Helvetica,Arial,sans-serif" font-size="11.5" font-weight="normal" fill="#243" text-anchor="middle"><tspan x="368.0" dy="0">Leakage-safe grouping:  ortholog group · gene · identical sequence (union-find)   →   frozen 70 / 15 / 15 split</tspan></text><rect x="742" y="56" width="714" height="300" rx="14" fill="url(#g_pan)" stroke="#9aa7b2" stroke-width="1.8" filter="url(#sh)"/><text x="758" y="80" font-family="Helvetica,Arial,sans-serif" font-size="15" font-weight="700" fill="#9aa7b2">B   Label / sequence preprocessing</text><rect x="762" y="92" width="100" height="66" rx="8" fill="#ffffff" stroke="#9aa7b2" stroke-width="1.2" filter="url(#sh)"/><text x="812.0" y="122.11600000000001" font-family="Helvetica,Arial,sans-serif" font-size="10.3" font-weight="normal" fill="#243" text-anchor="middle"><tspan x="812.0" dy="0">Label</tspan><tspan x="812.0" dy="12.772">harmonization</tspan></text><rect x="894" y="92" width="100" height="66" rx="8" fill="#ffffff" stroke="#9aa7b2" stroke-width="1.2" filter="url(#sh)"/><text x="944.0" y="122.11600000000001" font-family="Helvetica,Arial,sans-serif" font-size="10.3" font-weight="normal" fill="#243" text-anchor="middle"><tspan x="944.0" dy="0">Region extract</tspan><tspan x="944.0" dy="12.772">full / CDS / 3'UTR</tspan></text><path d="M882,125 L892,125" stroke="#3b4654" stroke-width="2.4" fill="none" marker-end="url(#arr)"/><rect x="1026" y="92" width="100" height="66" rx="8" fill="#ffffff" stroke="#9aa7b2" stroke-width="1.2" filter="url(#sh)"/><text x="1076.0" y="122.11600000000001" font-family="Helvetica,Arial,sans-serif" font-size="10.3" font-weight="normal" fill="#243" text-anchor="middle"><tspan x="1076.0" dy="0">Windowing /</tspan><tspan x="1076.0" dy="12.772">segmentation</tspan></text><path d="M1014,125 L1024,125" stroke="#3b4654" stroke-width="2.4" fill="none" marker-end="url(#arr)"/><rect x="1158" y="92" width="100" height="66" rx="8" fill="#ffffff" stroke="#9aa7b2" stroke-width="1.2" filter="url(#sh)"/><text x="1208.0" y="122.11600000000001" font-family="Helvetica,Arial,sans-serif" font-size="10.3" font-weight="normal" fill="#243" text-anchor="middle"><tspan x="1208.0" dy="0">Pad /</tspan><tspan x="1208.0" dy="12.772">truncate</tspan></text><path d="M1146,125 L1156,125" stroke="#3b4654" stroke-width="2.4" fill="none" marker-end="url(#arr)"/><rect x="1290" y="92" width="100" height="66" rx="8" fill="#ffffff" stroke="#9aa7b2" stroke-width="1.2" filter="url(#sh)"/><text x="1340.0" y="122.11600000000001" font-family="Helvetica,Arial,sans-serif" font-size="10.3" font-weight="normal" fill="#243" text-anchor="middle"><tspan x="1340.0" dy="0">Standardize</tspan><tspan x="1340.0" dy="12.772">(z-score)</tspan></text><path d="M1278,125 L1288,125" stroke="#3b4654" stroke-width="2.4" fill="none" marker-end="url(#arr)"/><rect x="762" y="184" width="320" height="60" rx="8" fill="#ffffff" stroke="#9aa7b2" stroke-width="1.2" filter="url(#sh)"/><text x="922.0" y="210.976" font-family="Helvetica,Arial,sans-serif" font-size="10.8" font-weight="normal" fill="#243" text-anchor="middle"><tspan x="922.0" dy="0">Leakage-safe safeguards</tspan><tspan x="922.0" dy="13.392000000000001">unknown ≠ negative · ortholog groups</tspan></text><rect x="1100" y="176" width="150" height="34" rx="8" fill="url(#g_fm)" stroke="#3a7ca5" stroke-width="1.3" filter="url(#sh)"/><text x="1175.0" y="196.74" font-family="Helvetica,Arial,sans-serif" font-size="11" font-weight="normal" fill="#243" text-anchor="middle"><tspan x="1175.0" dy="0">FM sequences</tspan></text><rect x="1100" y="216" width="150" height="34" rx="8" fill="url(#g_eng)" stroke="#5c946e" stroke-width="1.3" filter="url(#sh)"/><text x="1175.0" y="236.74" font-family="Helvetica,Arial,sans-serif" font-size="11" font-weight="normal" fill="#243" text-anchor="middle"><tspan x="1175.0" dy="0">Engineered features</tspan></text><rect x="1262" y="196" width="174" height="34" rx="8" fill="url(#g_oh)" stroke="#9b6a9e" stroke-width="1.3" filter="url(#sh)"/><text x="1349.0" y="216.74" font-family="Helvetica,Arial,sans-serif" font-size="11" font-weight="normal" fill="#243" text-anchor="middle"><tspan x="1349.0" dy="0">One-hot sequences</tspan></text><rect x="762" y="268" width="674" height="56" rx="8" fill="#ffffff" stroke="#9aa7b2" stroke-width="1.2" filter="url(#sh)"/><text x="1099.0" y="299.91" font-family="Helvetica,Arial,sans-serif" font-size="11.5" font-weight="normal" fill="#243" text-anchor="middle"><tspan x="1099.0" dy="0">Outputs to the three encoders  —  same data / split / labels, only the encoder differs</tspan></text><rect x="24" y="376" width="1432" height="300" rx="14" fill="url(#g_pan)" stroke="#9aa7b2" stroke-width="1.8" filter="url(#sh)"/><text x="40" y="400" font-family="Helvetica,Arial,sans-serif" font-size="15" font-weight="700" fill="#9aa7b2">C   Multi-view encoding — three complementary perspectives</text><rect x="44" y="410" width="440" height="250" rx="8" fill="url(#g_fm)" stroke="#3a7ca5" stroke-width="1.3" filter="url(#sh)"/><text x="264.0" y="538.91" font-family="Helvetica,Arial,sans-serif" font-size="11.5" font-weight="normal" fill="#243" text-anchor="middle"><tspan x="264.0" dy="0"></tspan></text><text x="264" y="432.0" font-family="Helvetica,Arial,sans-serif" font-size="14" font-weight="700" fill="#3a7ca5" text-anchor="middle"><tspan x="264" dy="0">Foundation-model view</tspan></text><rect x="60" y="470" width="120" height="64" rx="8" fill="#ffffff" stroke="#3a7ca5" stroke-width="1.2" filter="url(#sh)"/><text x="120.0" y="499.06" font-family="Helvetica,Arial,sans-serif" font-size="10.5" font-weight="normal" fill="#243" text-anchor="middle"><tspan x="120.0" dy="0">Sliding windows</tspan><tspan x="120.0" dy="13.02">→ tokenizer</tspan></text><rect x="196" y="470" width="150" height="64" rx="8" fill="#ffffff" stroke="#3a7ca5" stroke-width="1.2" filter="url(#sh)"/><text x="271.0" y="493.36" font-family="Helvetica,Arial,sans-serif" font-size="9.6" font-weight="normal" fill="#243" text-anchor="middle"><tspan x="271.0" dy="0">Pretrained encoder</tspan><tspan x="271.0" dy="11.904">RNA-FM / mRNA-FM /</tspan><tspan x="271.0" dy="11.904">UTR-BERT / DNABERT-2</tspan></text><rect x="360" y="470" width="108" height="64" rx="8" fill="#ffffff" stroke="#3a7ca5" stroke-width="1.2" filter="url(#sh)"/><text x="414.0" y="499.06" font-family="Helvetica,Arial,sans-serif" font-size="10.5" font-weight="normal" fill="#243" text-anchor="middle"><tspan x="414.0" dy="0">mean / attn</tspan><tspan x="414.0" dy="13.02">pooling</tspan></text><rect x="150" y="576" width="230" height="50" rx="8" fill="#ffffff" stroke="#3a7ca5" stroke-width="1.2" filter="url(#sh)"/><text x="265.0" y="605.08" font-family="Helvetica,Arial,sans-serif" font-size="12" font-weight="normal" fill="#243" text-anchor="middle"><tspan x="265.0" dy="0">z_FM   (frozen embedding, d_FM)</tspan></text><rect x="508" y="410" width="440" height="250" rx="8" fill="url(#g_eng)" stroke="#5c946e" stroke-width="1.3" filter="url(#sh)"/><text x="728.0" y="538.91" font-family="Helvetica,Arial,sans-serif" font-size="11.5" font-weight="normal" fill="#243" text-anchor="middle"><tspan x="728.0" dy="0"></tspan></text><text x="728" y="432.0" font-family="Helvetica,Arial,sans-serif" font-size="14" font-weight="700" fill="#5c946e" text-anchor="middle"><tspan x="728" dy="0">Handcrafted view</tspan></text><rect x="524" y="470" width="94" height="64" rx="8" fill="#ffffff" stroke="#5c946e" stroke-width="1.2" filter="url(#sh)"/><text x="571.0" y="499.2" font-family="Helvetica,Arial,sans-serif" font-size="10" font-weight="normal" fill="#243" text-anchor="middle"><tspan x="571.0" dy="0">Length /</tspan><tspan x="571.0" dy="12.4">composition</tspan></text><rect x="628" y="470" width="94" height="64" rx="8" fill="#ffffff" stroke="#5c946e" stroke-width="1.2" filter="url(#sh)"/><text x="675.0" y="499.2" font-family="Helvetica,Arial,sans-serif" font-size="10" font-weight="normal" fill="#243" text-anchor="middle"><tspan x="675.0" dy="0">GC /</tspan><tspan x="675.0" dy="12.4">k-mer</tspan></text><rect x="732" y="470" width="94" height="64" rx="8" fill="#ffffff" stroke="#5c946e" stroke-width="1.2" filter="url(#sh)"/><text x="779.0" y="499.2" font-family="Helvetica,Arial,sans-serif" font-size="10" font-weight="normal" fill="#243" text-anchor="middle"><tspan x="779.0" dy="0">Motif / RBP /</tspan><tspan x="779.0" dy="12.4">structure</tspan></text><rect x="836" y="470" width="94" height="64" rx="8" fill="#ffffff" stroke="#5c946e" stroke-width="1.2" filter="url(#sh)"/><text x="883.0" y="499.2" font-family="Helvetica,Arial,sans-serif" font-size="10" font-weight="normal" fill="#243" text-anchor="middle"><tspan x="883.0" dy="0">Region</tspan><tspan x="883.0" dy="12.4">descriptors</tspan></text><rect x="620" y="576" width="230" height="50" rx="8" fill="#ffffff" stroke="#5c946e" stroke-width="1.2" filter="url(#sh)"/><text x="735.0" y="605.08" font-family="Helvetica,Arial,sans-serif" font-size="12" font-weight="normal" fill="#243" text-anchor="middle"><tspan x="735.0" dy="0">z_eng   (standardized features, d_eng)</tspan></text><rect x="972" y="410" width="462" height="250" rx="8" fill="url(#g_oh)" stroke="#9b6a9e" stroke-width="1.3" filter="url(#sh)"/><text x="1203.0" y="538.91" font-family="Helvetica,Arial,sans-serif" font-size="11.5" font-weight="normal" fill="#243" text-anchor="middle"><tspan x="1203.0" dy="0"></tspan></text><text x="1203" y="432.0" font-family="Helvetica,Arial,sans-serif" font-size="14" font-weight="700" fill="#9b6a9e" text-anchor="middle"><tspan x="1203" dy="0">One-hot view / task-specific net</tspan></text><rect x="988" y="470" width="110" height="64" rx="8" fill="#ffffff" stroke="#9b6a9e" stroke-width="1.2" filter="url(#sh)"/><text x="1043.0" y="499.06" font-family="Helvetica,Arial,sans-serif" font-size="10.5" font-weight="normal" fill="#243" text-anchor="middle"><tspan x="1043.0" dy="0">One-hot</tspan><tspan x="1043.0" dy="13.02">(4 × L)</tspan></text><rect x="1114" y="470" width="180" height="64" rx="8" fill="#ffffff" stroke="#9b6a9e" stroke-width="1.2" filter="url(#sh)"/><text x="1204.0" y="499.312" font-family="Helvetica,Arial,sans-serif" font-size="9.6" font-weight="normal" fill="#243" text-anchor="middle"><tspan x="1204.0" dy="0">Conv1D + BiGRU + Attn</tspan><tspan x="1204.0" dy="11.904">(RNATracker / DM3Loc)</tspan></text><rect x="1310" y="470" width="108" height="64" rx="8" fill="#ffffff" stroke="#9b6a9e" stroke-width="1.2" filter="url(#sh)"/><text x="1364.0" y="499.06" font-family="Helvetica,Arial,sans-serif" font-size="10.5" font-weight="normal" fill="#243" text-anchor="middle"><tspan x="1364.0" dy="0">auxiliary</tspan><tspan x="1364.0" dy="13.02">outputs</tspan></text><rect x="1090" y="576" width="250" height="50" rx="8" fill="#ffffff" stroke="#9b6a9e" stroke-width="1.2" filter="url(#sh)"/><text x="1215.0" y="605.08" font-family="Helvetica,Arial,sans-serif" font-size="12" font-weight="normal" fill="#243" text-anchor="middle"><tspan x="1215.0" dy="0">z_task  /  auxiliary predictions</tspan></text><path d="M264,534 L264,574" stroke="#3b4654" stroke-width="2.4" fill="none" marker-end="url(#arr)"/><path d="M728,534 L728,574" stroke="#3b4654" stroke-width="2.4" fill="none" marker-end="url(#arr)"/><path d="M1203,534 L1203,574" stroke="#3b4654" stroke-width="2.4" fill="none" marker-end="url(#arr)"/><rect x="24" y="696" width="760" height="320" rx="14" fill="url(#g_fus)" stroke="#e0922f" stroke-width="1.8" filter="url(#sh)"/><text x="40" y="720" font-family="Helvetica,Arial,sans-serif" font-size="15" font-weight="700" fill="#e0922f">D   Attention-gated late fusion</text><rect x="44" y="740" width="120" height="50" rx="8" fill="url(#g_fm)" stroke="#3a7ca5" stroke-width="1.3" filter="url(#sh)"/><text x="104.0" y="769.08" font-family="Helvetica,Arial,sans-serif" font-size="12" font-weight="normal" fill="#243" text-anchor="middle"><tspan x="104.0" dy="0">z_FM</tspan></text><rect x="44" y="826" width="120" height="50" rx="8" fill="url(#g_eng)" stroke="#5c946e" stroke-width="1.3" filter="url(#sh)"/><text x="104.0" y="855.08" font-family="Helvetica,Arial,sans-serif" font-size="12" font-weight="normal" fill="#243" text-anchor="middle"><tspan x="104.0" dy="0">z_eng</tspan></text><rect x="192" y="740" width="168" height="50" rx="8" fill="#ffffff" stroke="#e0922f" stroke-width="1.2" filter="url(#sh)"/><text x="276.0" y="768.57" font-family="Helvetica,Arial,sans-serif" font-size="10.5" font-weight="normal" fill="#243" text-anchor="middle"><tspan x="276.0" dy="0">Projection (MLP) → h_FM</tspan></text><rect x="192" y="826" width="168" height="50" rx="8" fill="#ffffff" stroke="#e0922f" stroke-width="1.2" filter="url(#sh)"/><text x="276.0" y="854.57" font-family="Helvetica,Arial,sans-serif" font-size="10.5" font-weight="normal" fill="#243" text-anchor="middle"><tspan x="276.0" dy="0">Projection (MLP) → h_eng</tspan></text><rect x="392" y="768" width="210" height="90" rx="8" fill="url(#g_fus)" stroke="#e0922f" stroke-width="1.3" filter="url(#sh)"/><text x="497.0" y="803.5500000000001" font-family="Helvetica,Arial,sans-serif" font-size="10.5" font-weight="normal" fill="#243" text-anchor="middle"><tspan x="497.0" dy="0">Attention gating</tspan><tspan x="497.0" dy="13.02">α = softmax(W[h_FM ; h_eng] + b)</tspan><tspan x="497.0" dy="13.02">h = α_FM·h_FM + α_eng·h_eng</tspan></text><rect x="636" y="786" width="128" height="54" rx="8" fill="#ffffff" stroke="#e0922f" stroke-width="1.2" filter="url(#sh)"/><text x="700.0" y="809.92" font-family="Helvetica,Arial,sans-serif" font-size="11" font-weight="normal" fill="#243" text-anchor="middle"><tspan x="700.0" dy="0">Multi-label</tspan><tspan x="700.0" dy="13.64">sigmoid classifier</tspan></text><path d="M164,765 L192,765" stroke="#3b4654" stroke-width="2.4" fill="none" marker-end="url(#arr)"/><path d="M164,851 L192,851" stroke="#3b4654" stroke-width="2.4" fill="none" marker-end="url(#arr)"/><path d="M360,765 L392,800" stroke="#3b4654" stroke-width="2.4" fill="none" marker-end="url(#arr)"/><path d="M360,851 L392,826" stroke="#3b4654" stroke-width="2.4" fill="none" marker-end="url(#arr)"/><path d="M602,813 L636,813" stroke="#3b4654" stroke-width="2.4" fill="none" marker-end="url(#arr)"/><rect x="800" y="696" width="656" height="320" rx="14" fill="url(#g_out)" stroke="#c0504d" stroke-width="1.8" filter="url(#sh)"/><text x="816" y="720" font-family="Helvetica,Arial,sans-serif" font-size="15" font-weight="700" fill="#c0504d">E   Outputs, objectives &amp; evaluation</text><rect x="820" y="736" width="300" height="130" rx="8" fill="url(#g_out)" stroke="#c0504d" stroke-width="1.3" filter="url(#sh)"/><text x="970.0" y="777.46" font-family="Helvetica,Arial,sans-serif" font-size="11" font-weight="normal" fill="#243" text-anchor="middle"><tspan x="970.0" dy="0">Output heads (multilabel)</tspan><tspan x="970.0" dy="13.64"></tspan><tspan x="970.0" dy="13.64">1)  binary  soma vs neurite</tspan><tspan x="970.0" dy="13.64">2)  5 compartments:</tspan><tspan x="970.0" dy="13.64">Cell body · Dendrite · Neuropil · Axon · Neurite</tspan></text><rect x="1138" y="736" width="300" height="58" rx="8" fill="#ffffff" stroke="#c0504d" stroke-width="1.2" filter="url(#sh)"/><text x="1288.0" y="762.032" font-family="Helvetica,Arial,sans-serif" font-size="10.6" font-weight="normal" fill="#243" text-anchor="middle"><tspan x="1288.0" dy="0">Training:  masked BCE + pos_weight</tspan><tspan x="1288.0" dy="13.144">early stop on validation macro-AUC</tspan></text><rect x="1138" y="808" width="300" height="58" rx="8" fill="#ffffff" stroke="#c0504d" stroke-width="1.2" filter="url(#sh)"/><text x="1288.0" y="834.1999999999999" font-family="Helvetica,Arial,sans-serif" font-size="10" font-weight="normal" fill="#243" text-anchor="middle"><tspan x="1288.0" dy="0">Leakage-safe eval:  thresholds on val,</tspan><tspan x="1288.0" dy="12.4">applied to test · group bootstrap (split_group)</tspan></text><rect x="820" y="886" width="618" height="56" rx="8" fill="#ffffff" stroke="#c0504d" stroke-width="1.2" filter="url(#sh)"/><text x="1129.0" y="917.91" font-family="Helvetica,Arial,sans-serif" font-size="11.5" font-weight="normal" fill="#243" text-anchor="middle"><tspan x="1129.0" dy="0">Metrics:   AUROC ↑   AUPRC ↑   F1 micro/macro ↑   Hamming ↓   subset-acc ↑    (ROC + PR dual-metric, Bonferroni)</tspan></text><path d="M360,356 L360,374" stroke="#3b4654" stroke-width="2.4" fill="none" marker-end="url(#arr)"/><path d="M1100,356 L1100,374" stroke="#3b4654" stroke-width="2.4" fill="none" marker-end="url(#arr)"/><path d="M264,660 L300,694" stroke="#3b4654" stroke-width="2.4" fill="none" marker-end="url(#arr)"/><path d="M728,660 L360,740" stroke="#3b4654" stroke-width="2.4" fill="none" marker-end="url(#arr)"/><path d="M1203,660 L980,760" stroke="#9b6a9e" stroke-width="2.4" fill="none" stroke-dasharray="6 5" marker-end="url(#arrd)"/><path d="M764,813 L820,800" stroke="#3b4654" stroke-width="2.4" fill="none" marker-end="url(#arr)"/><rect x="24" y="1022" width="16" height="12" rx="3" fill="url(#g_fm)" stroke="#3a7ca5"/><text x="46" y="1032.0" font-family="Helvetica,Arial,sans-serif" font-size="11" font-weight="normal" fill="#333" text-anchor="start"><tspan x="46" dy="0">FM view</tspan></text><rect x="189" y="1022" width="16" height="12" rx="3" fill="url(#g_eng)" stroke="#5c946e"/><text x="211" y="1032.0" font-family="Helvetica,Arial,sans-serif" font-size="11" font-weight="normal" fill="#333" text-anchor="start"><tspan x="211" dy="0">Handcrafted</tspan></text><rect x="354" y="1022" width="16" height="12" rx="3" fill="url(#g_oh)" stroke="#9b6a9e"/><text x="376" y="1032.0" font-family="Helvetica,Arial,sans-serif" font-size="11" font-weight="normal" fill="#333" text-anchor="start"><tspan x="376" dy="0">One-hot / task net</tspan></text><rect x="519" y="1022" width="16" height="12" rx="3" fill="url(#g_fus)" stroke="#e0922f"/><text x="541" y="1032.0" font-family="Helvetica,Arial,sans-serif" font-size="11" font-weight="normal" fill="#333" text-anchor="start"><tspan x="541" dy="0">Fusion</tspan></text><rect x="684" y="1022" width="16" height="12" rx="3" fill="url(#g_out)" stroke="#c0504d"/><text x="706" y="1032.0" font-family="Helvetica,Arial,sans-serif" font-size="11" font-weight="normal" fill="#333" text-anchor="start"><tspan x="706" dy="0">Output / training</tspan></text><text x="1180" y="1032.0" font-family="Helvetica,Arial,sans-serif" font-size="11" font-weight="normal" fill="#333" text-anchor="start"><tspan x="1180" dy="0">→ main flow      ⇢ auxiliary flow</tspan></text></svg>